<?xml version="1.0" encoding="UTF-8"?>
<svg width="700pt" height="700pt" version="1.1" viewBox="0 0 700 700" xmlns="http://www.w3.org/2000/svg" xmlns:xlink="http://www.w3.org/1999/xlink">
 <defs>
  <symbol id="s" overflow="visible">
   <path d="m18.766-1.125c-0.96875 0.5-1.9805 0.875-3.0312 1.125-1.043 0.25781-2.1367 0.39062-3.2812 0.39062-3.3984 0-6.0898-0.94531-8.0781-2.8438-1.9922-1.9062-2.9844-4.4844-2.9844-7.7344 0-3.2578 0.99219-5.8359 2.9844-7.7344 1.9883-1.9062 4.6797-2.8594 8.0781-2.8594 1.1445 0 2.2383 0.13281 3.2812 0.39062 1.0508 0.25 2.0625 0.625 3.0312 1.125v4.2188c-0.98047-0.65625-1.9453-1.1406-2.8906-1.4531-0.94922-0.3125-1.9492-0.46875-3-0.46875-1.875 0-3.3516 0.60547-4.4219 1.8125-1.0742 1.1992-1.6094 2.8555-1.6094 4.9688 0 2.1055 0.53516 3.7617 1.6094 4.9688 1.0703 1.1992 2.5469 1.7969 4.4219 1.7969 1.0508 0 2.0508-0.14844 3-0.45312 0.94531-0.3125 1.9102-0.80078 2.8906-1.4688z"/>
  </symbol>
  <symbol id="b" overflow="visible">
   <path d="m13.734-11.141c-0.4375-0.19531-0.87109-0.34375-1.2969-0.4375-0.41797-0.10156-0.83984-0.15625-1.2656-0.15625-1.2617 0-2.2305 0.40625-2.9062 1.2188-0.67969 0.80469-1.0156 1.9531-1.0156 3.4531v7.0625h-4.8906v-15.312h4.8906v2.5156c0.625-1 1.3438-1.7266 2.1562-2.1875 0.82031-0.46875 1.8008-0.70312 2.9375-0.70312 0.16406 0 0.34375 0.011719 0.53125 0.03125 0.19531 0.011719 0.47656 0.039062 0.84375 0.078125z"/>
  </symbol>
  <symbol id="a" overflow="visible">
   <path d="m17.641-7.7031v1.4062h-11.453c0.125 1.1484 0.53906 2.0078 1.25 2.5781 0.70703 0.57422 1.7031 0.85938 2.9844 0.85938 1.0312 0 2.082-0.14844 3.1562-0.45312 1.082-0.3125 2.1914-0.77344 3.3281-1.3906v3.7656c-1.1562 0.4375-2.3125 0.76562-3.4688 0.98438-1.1562 0.22656-2.3125 0.34375-3.4688 0.34375-2.7734 0-4.9297-0.70312-6.4688-2.1094-1.5312-1.4062-2.2969-3.3789-2.2969-5.9219 0-2.5 0.75391-4.4609 2.2656-5.8906 1.5078-1.4375 3.582-2.1562 6.2188-2.1562 2.4062 0 4.332 0.73047 5.7812 2.1875 1.4453 1.4492 2.1719 3.3828 2.1719 5.7969zm-5.0312-1.625c0-0.92578-0.27344-1.6719-0.8125-2.2344-0.54297-0.57031-1.25-0.85938-2.125-0.85938-0.94922 0-1.7188 0.26562-2.3125 0.79688s-0.96484 1.2969-1.1094 2.2969z"/>
  </symbol>
  <symbol id="f" overflow="visible">
   <path d="m9.2188-6.8906c-1.0234 0-1.793 0.17188-2.3125 0.51562-0.51172 0.34375-0.76562 0.85547-0.76562 1.5312 0 0.625 0.20703 1.1172 0.625 1.4688 0.41406 0.34375 0.98828 0.51562 1.7188 0.51562 0.92578 0 1.7031-0.32812 2.3281-0.98438 0.63281-0.66406 0.95312-1.4922 0.95312-2.4844v-0.5625zm7.4688-1.8438v8.7344h-4.9219v-2.2656c-0.65625 0.92969-1.3984 1.6055-2.2188 2.0312-0.82422 0.41406-1.8242 0.625-3 0.625-1.5859 0-2.8711-0.45703-3.8594-1.375-0.99219-0.92578-1.4844-2.1289-1.4844-3.6094 0-1.7891 0.61328-3.1016 1.8438-3.9375 1.2383-0.84375 3.1797-1.2656 5.8281-1.2656h2.8906v-0.39062c0-0.76953-0.30859-1.332-0.92188-1.6875-0.61719-0.36328-1.5703-0.54688-2.8594-0.54688-1.0547 0-2.0312 0.10547-2.9375 0.3125-0.89844 0.21094-1.7305 0.52344-2.5 0.9375v-3.7344c1.0391-0.25 2.0859-0.44141 3.1406-0.57812 1.0625-0.13281 2.125-0.20312 3.1875-0.20312 2.7578 0 4.75 0.54688 5.9688 1.6406 1.2266 1.0859 1.8438 2.8555 1.8438 5.3125z"/>
  </symbol>
  <symbol id="d" overflow="visible">
   <path d="m7.7031-19.656v4.3438h5.0469v3.5h-5.0469v6.5c0 0.71094 0.14062 1.1875 0.42188 1.4375s0.83594 0.375 1.6719 0.375h2.5156v3.5h-4.1875c-1.9375 0-3.3125-0.39844-4.125-1.2031-0.80469-0.8125-1.2031-2.1797-1.2031-4.1094v-6.5h-2.4219v-3.5h2.4219v-4.3438z"/>
  </symbol>
  <symbol id="j" overflow="visible">
   <path d="m12.766-13.078v-8.2031h4.9219v21.281h-4.9219v-2.2188c-0.66797 0.90625-1.4062 1.5703-2.2188 1.9844s-1.7578 0.625-2.8281 0.625c-1.8867 0-3.4336-0.75-4.6406-2.25-1.2109-1.5-1.8125-3.4258-1.8125-5.7812 0-2.3633 0.60156-4.2969 1.8125-5.7969 1.207-1.5 2.7539-2.25 4.6406-2.25 1.0625 0 2 0.21484 2.8125 0.64062 0.82031 0.42969 1.5664 1.0859 2.2344 1.9688zm-3.2188 9.9219c1.0391 0 1.8359-0.37891 2.3906-1.1406 0.55078-0.76953 0.82812-1.8828 0.82812-3.3438 0-1.457-0.27734-2.5664-0.82812-3.3281-0.55469-0.76953-1.3516-1.1562-2.3906-1.1562-1.043 0-1.8398 0.38672-2.3906 1.1562-0.55469 0.76172-0.82812 1.8711-0.82812 3.3281 0 1.4609 0.27344 2.5742 0.82812 3.3438 0.55078 0.76172 1.3477 1.1406 2.3906 1.1406z"/>
  </symbol>
  <symbol id="e" overflow="visible">
   <path d="m10.5-3.1562c1.0508 0 1.8516-0.37891 2.4062-1.1406 0.55078-0.76953 0.82812-1.8828 0.82812-3.3438 0-1.457-0.27734-2.5664-0.82812-3.3281-0.55469-0.76953-1.3555-1.1562-2.4062-1.1562-1.0547 0-1.8594 0.38672-2.4219 1.1562-0.55469 0.77344-0.82812 1.8828-0.82812 3.3281 0 1.4492 0.27344 2.5586 0.82812 3.3281 0.5625 0.77344 1.3672 1.1562 2.4219 1.1562zm-3.25-9.9219c0.67578-0.88281 1.4219-1.5391 2.2344-1.9688 0.82031-0.42578 1.7656-0.64062 2.8281-0.64062 1.8945 0 3.4453 0.75 4.6562 2.25 1.207 1.5 1.8125 3.4336 1.8125 5.7969 0 2.3555-0.60547 4.2812-1.8125 5.7812-1.2109 1.5-2.7617 2.25-4.6562 2.25-1.0625 0-2.0078-0.21094-2.8281-0.625-0.8125-0.42578-1.5586-1.0859-2.2344-1.9844v2.2188h-4.8906v-21.281h4.8906z"/>
  </symbol>
  <symbol id="i" overflow="visible">
   <path d="m0.34375-15.312h4.8906l4.125 10.391 3.5-10.391h4.8906l-6.4375 16.766c-0.64844 1.6953-1.4023 2.8828-2.2656 3.5625-0.86719 0.6875-2 1.0312-3.4062 1.0312h-2.8438v-3.2188h1.5312c0.83203 0 1.4375-0.13672 1.8125-0.40625 0.38281-0.26172 0.67969-0.73047 0.89062-1.4062l0.14062-0.42188z"/>
  </symbol>
  <symbol id="h" overflow="visible">
   <path d="m16.781-19.766v4.3125c-1.125-0.5-2.2266-0.875-3.2969-1.125-1.0625-0.25781-2.0703-0.39062-3.0156-0.39062-1.25 0-2.1797 0.17969-2.7812 0.53125-0.60547 0.34375-0.90625 0.88281-0.90625 1.6094 0 0.54297 0.20312 0.96875 0.60938 1.2812 0.40625 0.30469 1.1406 0.5625 2.2031 0.78125l2.25 0.45312c2.2695 0.44922 3.8789 1.1406 4.8281 2.0781 0.95703 0.92969 1.4375 2.2461 1.4375 3.9531 0 2.25-0.66797 3.9297-2 5.0312-1.3359 1.0938-3.3711 1.6406-6.1094 1.6406-1.3047 0-2.6055-0.125-3.9062-0.375-1.3047-0.23828-2.6055-0.59766-3.9062-1.0781v-4.4531c1.3008 0.69922 2.5625 1.2266 3.7812 1.5781 1.2188 0.34375 2.3906 0.51562 3.5156 0.51562 1.1562 0 2.0352-0.1875 2.6406-0.5625 0.61328-0.38281 0.92188-0.9375 0.92188-1.6562 0-0.63281-0.21094-1.125-0.625-1.4688-0.41797-0.34375-1.2461-0.65625-2.4844-0.9375l-2.0312-0.4375c-2.043-0.4375-3.5391-1.1328-4.4844-2.0938-0.9375-0.95703-1.4062-2.25-1.4062-3.875 0-2.0312 0.65625-3.5938 1.9688-4.6875s3.1953-1.6406 5.6562-1.6406c1.125 0 2.2734 0.085938 3.4531 0.25 1.1875 0.16797 2.4141 0.42188 3.6875 0.76562z"/>
  </symbol>
  <symbol id="c" overflow="visible">
   <path d="m9.6406-12.188c-1.0859 0-1.9141 0.39062-2.4844 1.1719-0.57422 0.78125-0.85938 1.9062-0.85938 3.375s0.28516 2.5938 0.85938 3.375c0.57031 0.77344 1.3984 1.1562 2.4844 1.1562 1.0625 0 1.875-0.38281 2.4375-1.1562 0.57031-0.78125 0.85938-1.9062 0.85938-3.375s-0.28906-2.5938-0.85938-3.375c-0.5625-0.78125-1.375-1.1719-2.4375-1.1719zm0-3.5c2.6328 0 4.6914 0.71484 6.1719 2.1406 1.4766 1.418 2.2188 3.3867 2.2188 5.9062 0 2.5117-0.74219 4.4805-2.2188 5.9062-1.4805 1.418-3.5391 2.125-6.1719 2.125-2.6484 0-4.7148-0.70703-6.2031-2.125-1.4922-1.4258-2.2344-3.3945-2.2344-5.9062 0-2.5195 0.74219-4.4883 2.2344-5.9062 1.4883-1.4258 3.5547-2.1406 6.2031-2.1406z"/>
  </symbol>
  <symbol id="g" overflow="visible">
   <path d="m16.547-12.766c0.61328-0.94531 1.3477-1.6719 2.2031-2.1719 0.85156-0.5 1.7891-0.75 2.8125-0.75 1.7578 0 3.0977 0.54688 4.0156 1.6406 0.92578 1.0859 1.3906 2.6562 1.3906 4.7188v9.3281h-4.9219v-7.9844-0.35938c0.007813-0.13281 0.015625-0.32031 0.015625-0.5625 0-1.082-0.16406-1.8633-0.48438-2.3438-0.3125-0.48828-0.82422-0.73438-1.5312-0.73438-0.92969 0-1.6484 0.38672-2.1562 1.1562-0.51172 0.76172-0.77344 1.8672-0.78125 3.3125v7.5156h-4.9219v-7.9844c0-1.6953-0.14844-2.7852-0.4375-3.2656-0.29297-0.48828-0.8125-0.73438-1.5625-0.73438-0.9375 0-1.6641 0.38672-2.1719 1.1562-0.51172 0.76172-0.76562 1.8594-0.76562 3.2969v7.5312h-4.9219v-15.312h4.9219v2.2344c0.60156-0.86328 1.2891-1.5156 2.0625-1.9531 0.78125-0.4375 1.6406-0.65625 2.5781-0.65625 1.0625 0 2 0.25781 2.8125 0.76562 0.8125 0.51172 1.4258 1.2305 1.8438 2.1562z"/>
  </symbol>
  <symbol id="r" overflow="visible">
   <path d="m12.422-21.281v3.2188h-2.7031c-0.6875 0-1.1719 0.125-1.4531 0.375-0.27344 0.25-0.40625 0.6875-0.40625 1.3125v1.0625h4.1875v3.5h-4.1875v11.812h-4.8906v-11.812h-2.4375v-3.5h2.4375v-1.0625c0-1.6641 0.46094-2.8984 1.3906-3.7031 0.92578-0.80078 2.3672-1.2031 4.3281-1.2031z"/>
  </symbol>
  <symbol id="q" overflow="visible">
   <path d="m17.75-9.3281v9.3281h-4.9219v-7.1094c0-1.3438-0.03125-2.2656-0.09375-2.7656s-0.16797-0.86719-0.3125-1.1094c-0.1875-0.3125-0.44922-0.55469-0.78125-0.73438-0.32422-0.17578-0.69531-0.26562-1.1094-0.26562-1.0234 0-1.8242 0.39844-2.4062 1.1875-0.58594 0.78125-0.875 1.8711-0.875 3.2656v7.5312h-4.8906v-21.281h4.8906v8.2031c0.73828-0.88281 1.5195-1.5391 2.3438-1.9688 0.83203-0.42578 1.75-0.64062 2.75-0.64062 1.7695 0 3.1133 0.54688 4.0312 1.6406 0.91406 1.0859 1.375 2.6562 1.375 4.7188z"/>
  </symbol>
  <symbol id="p" overflow="visible">
   <path d="m2.5781-20.406h5.875l7.4219 14v-14h4.9844v20.406h-5.875l-7.4219-14v14h-4.9844z"/>
  </symbol>
  <symbol id="o" overflow="visible">
   <path d="m2.1875-5.9688v-9.3438h4.9219v1.5312c0 0.83594-0.007813 1.875-0.015625 3.125-0.011719 1.25-0.015625 2.0859-0.015625 2.5 0 1.2422 0.03125 2.1328 0.09375 2.6719 0.070313 0.54297 0.17969 0.93359 0.32812 1.1719 0.20703 0.32422 0.47266 0.57422 0.79688 0.75 0.32031 0.16797 0.69141 0.25 1.1094 0.25 1.0195 0 1.8203-0.39062 2.4062-1.1719 0.58203-0.78125 0.875-1.8672 0.875-3.2656v-7.5625h4.8906v15.312h-4.8906v-2.2188c-0.74219 0.89844-1.5234 1.5586-2.3438 1.9844-0.82422 0.41406-1.7344 0.625-2.7344 0.625-1.7617 0-3.1055-0.53906-4.0312-1.625-0.92969-1.082-1.3906-2.6602-1.3906-4.7344z"/>
  </symbol>
  <symbol id="n" overflow="visible">
   <path d="m17.75-9.3281v9.3281h-4.9219v-7.1406c0-1.3203-0.03125-2.2344-0.09375-2.7344s-0.16797-0.86719-0.3125-1.1094c-0.1875-0.3125-0.44922-0.55469-0.78125-0.73438-0.32422-0.17578-0.69531-0.26562-1.1094-0.26562-1.0234 0-1.8242 0.39844-2.4062 1.1875-0.58594 0.78125-0.875 1.8711-0.875 3.2656v7.5312h-4.8906v-15.312h4.8906v2.2344c0.73828-0.88281 1.5195-1.5391 2.3438-1.9688 0.83203-0.42578 1.75-0.64062 2.75-0.64062 1.7695 0 3.1133 0.54688 4.0312 1.6406 0.91406 1.0859 1.375 2.6562 1.375 4.7188z"/>
  </symbol>
  <symbol id="m" overflow="visible">
   <path d="m2.5781-20.406h8.7344c2.5938 0 4.582 0.57812 5.9688 1.7344 1.3945 1.1484 2.0938 2.7891 2.0938 4.9219 0 2.1367-0.69922 3.7812-2.0938 4.9375-1.3867 1.1562-3.375 1.7344-5.9688 1.7344h-3.4844v7.0781h-5.25zm5.25 3.8125v5.7031h2.9219c1.0195 0 1.8047-0.25 2.3594-0.75 0.5625-0.5 0.84375-1.2031 0.84375-2.1094 0-0.91406-0.28125-1.6172-0.84375-2.1094-0.55469-0.48828-1.3398-0.73438-2.3594-0.73438z"/>
  </symbol>
  <symbol id="l" overflow="visible">
   <path d="m2.3594-15.312h4.8906v15.031c0 2.0508-0.49609 3.6172-1.4844 4.7031-0.98047 1.082-2.4062 1.625-4.2812 1.625h-2.4219v-3.2188h0.85938c0.92578 0 1.5625-0.21094 1.9062-0.625 0.35156-0.41797 0.53125-1.2461 0.53125-2.4844zm0-5.9688h4.8906v4h-4.8906z"/>
  </symbol>
  <symbol id="k" overflow="visible">
   <path d="m14.719-14.828v3.9844c-0.65625-0.45703-1.3242-0.79688-2-1.0156-0.66797-0.21875-1.3594-0.32812-2.0781-0.32812-1.3672 0-2.4336 0.40234-3.2031 1.2031-0.76172 0.79297-1.1406 1.9062-1.1406 3.3438 0 1.4297 0.37891 2.543 1.1406 3.3438 0.76953 0.79297 1.8359 1.1875 3.2031 1.1875 0.75781 0 1.4844-0.10938 2.1719-0.32812 0.6875-0.22656 1.3203-0.56641 1.9062-1.0156v4c-0.76172 0.28125-1.5391 0.48828-2.3281 0.625-0.78125 0.14453-1.5742 0.21875-2.375 0.21875-2.7617 0-4.9219-0.70703-6.4844-2.125-1.5547-1.4141-2.3281-3.3828-2.3281-5.9062 0-2.5312 0.77344-4.5039 2.3281-5.9219 1.5625-1.4141 3.7227-2.125 6.4844-2.125 0.80078 0 1.5938 0.074219 2.375 0.21875 0.78125 0.13672 1.5547 0.35156 2.3281 0.64062z"/>
  </symbol>
 </defs>
 <g>
  <path d="m383.6 246.06 9.8008 0.67188 2.4062 4.9297c-3.3477 1.6016-5.7383 4.6992-6.4414 8.3438l-1.3438 0.89453c-3.0234 1.793-3.1914 2.4062-1.793 5.6016 0.44922 1.0078 0.95312 2.0703 1.5117 3.0781 1.3984 2.4062 2.3516 2.6875 5.0391 1.6797l1.6797-0.72656h0.003906c3.2148 1.6562 7.0312 1.6562 10.246 0 0.61719 1.1211 1.1758 2.0156 1.5664 2.9102 14.449 30.801 29.008 61.602 43.23 92.457 9.2383 19.992 16.801 40.543 24.246 61.266h0.007813c2.5195 7.4219 5.7852 14.57 9.7422 21.336 2.0156 3.2461 4.4258 6.2734 6.7188 9.4062 0.48438 0.59766 1.0312 1.1406 1.625 1.625 0.87891 1.0117 2.293 1.3633 3.543 0.89062 1.25-0.47656 2.0703-1.6797 2.0586-3.0195 0.25-2.1758 0.25-4.375 0-6.5508-1.1484-7.3672-3.4922-14.5-6.9453-21.113-5.0977-9.8008-10.414-19.488-15.566-29.23-11.543-20.836-21.324-42.602-29.234-65.07-4.6562-13.766-7.7734-28-9.2969-42.449-1.6992-16.129-0.8125-32.426 2.6328-48.273 0.15625-0.8125 0.26953-1.6367 0.33594-2.4609l-2.5742-3.2461v-0.003907c-3.2422-3.8477-5.457-8.4492-6.4414-13.383-0.84766-4.5586 1.2031-9.168 5.1523-11.594 3.0859-1.8594 6.5938-2.8984 10.191-3.0234 5.0195-0.40234 10.074-0.10156 15.008 0.89453 19.512 4.0117 37.457 13.559 51.688 27.496 3.7969 3.5664 6.8398 7.8477 8.9609 12.602 1.0938 2.4219 1.8477 4.9883 2.2422 7.6172 0.48047 4.2109-1.7695 8.2617-5.6016 10.078-2.4062 1.2305-4.9844 1.9609-8.0078 3.1367 0 1.457-0.61719 3.3047-0.72656 5.1523-0.58984 9.2539-0.023437 18.547 1.6797 27.664 3.9023 18.613 9.8555 36.738 17.75 54.039 5.6016 12.602 11.199 25.031 16.801 37.633 5.7109 12.555 9.6484 25.84 11.703 39.48 4.1445 21.938-1.3867 44.598-15.176 62.16-8.0117 10.539-19.5 17.902-32.422 20.773-13.516 3.0312-27.68 0.40234-39.203-7.2773-15.617-10.195-27.809-24.848-35-42.059-5.2148-11.93-9.4297-24.273-12.598-36.902-5.9922-22.062-13.551-43.625-21.617-65.016-5.6016-14.281-11.199-28.504-16.801-42.727-0.44922-1.2891-1.0625-2.5195-1.5117-3.6953-2.2969 0.28125-1.8477 1.9023-2.1289 3.0234v-0.003906c-0.17578 1.5156-0.96484 2.8906-2.1797 3.8086-1.2148 0.92188-2.7539 1.3047-4.2578 1.0664-2.0781 0.035156-4.0273-1-5.1641-2.7383-1.1367-1.7422-1.3047-3.9414-0.4375-5.832 0.54688-1.0664 1.1641-2.0938 1.8477-3.0781l-23.184-61.602c-3.5859 0-6.9453 0-8.2305-4.4805-1.2891-4.4805 0.95312-5.6016 3.5273-7.9531l-22.512-60.367c-3.5273 0-6.7188-0.72656-7.9531-4.3672-0.9375-2.2188-0.35156-4.7891 1.457-6.3828 2.2891-2.1211 5.7227-2.418 8.3438-0.72656l1.7344-1.0625v-0.003906c-0.15625-0.75781-0.36328-1.5078-0.61328-2.2383-3.7539-9.9688-7.6172-19.938-11.199-29.902-7-19.039-13.832-38.137-20.887-57.176l-0.003906-0.003907c-3.5664-9.9023-7.9883-19.477-13.215-28.613-2.5586-4.6211-5.7031-8.8945-9.3516-12.715-5.9375-5.6016-9.8555-5.9922-15.848 0-3.1094 2.9844-5.957 6.2227-8.5117 9.6875-5.0586 6.6562-11.145 12.461-18.035 17.195-11.895 8.3516-24.379 15.836-37.352 22.398-2.3516 1.2305-4.5352 2.8555-6.8867 4.1445-2.8945 1.6406-5.9062 3.0664-9.0156 4.2539-7.9062 2.6992-16.07 4.5781-24.359 5.6016-4.7031 0.67187-9.4062 1.1758-14.391 1.793l-0.003906-6.6094c3.1367-1.8477 6.2734-3.5859 9.2969-5.6016 5.8633-3.5391 10.828-8.3867 14.504-14.168 2.0508-3.5664 6.1719-5.3984 10.191-4.5352 4.3086 0.91797 8.3359 2.8359 11.762 5.6016 5.6016-3.6406 11.594-7.2812 17.359-11.199 7.8281-5.1016 15.312-10.715 22.398-16.801 3.8281-3.4336 7.2148-7.3281 10.082-11.594 2.4062-3.6406 4.9297-7.2227 7.6172-10.641 3.2266-4.1875 7.2891-7.6562 11.926-10.191 7.1914-4.0508 15.906-4.3438 23.352-0.78125 6.1328 2.9297 11.543 7.1758 15.848 12.43 7.1875 8.2656 13.23 17.457 17.977 27.328 6.3828 13.16 12.32 26.543 18.48 39.816 0.50391 1.1211 1.1211 2.2969 1.6797 3.4141 1.9609 0 1.793-1.625 2.0156-2.8008v0.003906c0.45312-2.6172 2.5742-4.6211 5.2109-4.9297 2.4141-0.36719 4.8203 0.72266 6.1289 2.7852 1.3125 2.0625 1.2773 4.707-0.082031 6.7344-1.1836 2.0977-3.5742 3.1992-5.9375 2.7461-0.87109-0.19922-1.7305-0.44141-2.5742-0.73047-0.78516 0-0.78516 0-2.6875 1.2305l9.2969 20.777-3.2461 6.6094c-0.83984 0.83984-3.3047 1.0625-3.5859 3.9766 0.61719 1.2891 1.3438 3.0781 2.2383 4.7617 1.5117 2.9688 2.4062 3.3047 5.6016 2.0156l1.1758-0.44922 6.3828 1.6797 2.8555 5.9375-3.6953 7.2227c-1.1758 0.78516-3.3047 1.2891-3.5273 3.9766 1.457 2.5742 1.793 6.1602 5.3203 7.7266l3.5273-1.3438 7.2227 1.6797 2.5195 5.3203-4.0312 7.168c-0.95312 1.5117-3.4727 1.5664-3.5859 4.8164 0.55859 1.1758 1.3438 3.0781 2.2969 4.8711 0.95312 1.793 2.1289 2.8008 4.9844 1.8477l1.2305-0.44922 8.2305 1.3438 2.5781 4.8203-4.8711 7.7852c-1.0625 1.457-3.3047 1.8477-3.5273 4.5352 1.2891 2.6328 1.8477 6.1055 5.0977 7.8398l4.0312-1.5117v-0.003906c2.6055 1.3633 5.6445 1.6445 8.457 0.78516l2.7422 5.6016c-2.9141 1.5977-4.9648 4.4102-5.6016 7.6719-1.2891 1.5664-3.9219 1.5664-4.0312 4.8164 0.44922 1.0078 1.1758 2.8008 2.0156 4.4805 1.5117 2.9688 2.2969 3.2461 5.6016 2.1836l1.457-0.50391zm-29.848 1.9609c-1.1211 1.0625-2.1289 1.5664-2.2383 2.2383l-0.003906 0.003906c-0.67578 2.168-0.67578 4.4922 0 6.6641 5.6016 14.504 11.199 29.008 16.52 43.566l6.3281 16.801 4.3672 1.625 2.1836-1.5117c-8.5117-23.074-17.695-45.809-26.934-69.387zm-30.41-66.414c7.7266 20.457 15.438 40.863 23.129 61.207 0.47266 1.5234 1.8242 2.6094 3.4141 2.7422l2.3516-1.8477c-8.8477-22.398-17.586-44.801-26.375-67.199h-0.72656z"/>
  <path d="m394.8 267.12-3.6953 1.5664-2.1836-4.2578 1.9023-1.3438v0.003906c0.5-0.32422 1.0234-0.60547 1.5664-0.84375 1.6797-6.6094 5.3203-9.3516 10.023-7.7266 1.918 0.64062 3.4844 2.043 4.332 3.8789 0.84766 1.832 0.90234 3.9336 0.14844 5.8086-1.7891 4.5938-6.2148 5.5469-12.094 2.9141z"/>
  <path d="m362.27 191.63-3.7539 1.625-2.0703-4.1445 1.7344-1.457 1.5664-0.89453c1.8477-6.6641 5.6016-9.2969 10.023-7.6719h0.003906c1.9805 0.65625 3.5898 2.1211 4.4336 4.0273 0.84375 1.9102 0.83984 4.0898-0.011719 5.9961-1.793 4.2539-6.3281 5.2617-11.926 2.5195z"/>
  <path d="m373.13 216.78-3.8086 1.5664-2.1289-4.3125 3.5859-2.1836c0-0.83984 0.33594-1.8477 0.61719-2.8008h-0.003906c0.53125-1.8789 1.8047-3.4609 3.5273-4.3828 1.7227-0.91797 3.7461-1.0938 5.6016-0.48828 3.8438 1.2305 5.9688 5.3359 4.7617 9.1836-0.53906 1.8711-1.8203 3.4375-3.5469 4.3359-1.7227 0.89844-3.7422 1.0508-5.582 0.42578-0.95312-0.33594-1.8477-0.83984-3.0234-1.3438z"/>
  <path d="m383.88 241.92-3.6953 1.625-2.1836-4.3164 3.5273-2.3516c1.5117-6.4414 4.8164-8.9609 9.6875-7.5586 2.0078 0.55859 3.6758 1.957 4.5742 3.832 0.90234 1.8789 0.94922 4.0547 0.13281 5.9688-1.793 4.5352-6.2188 5.543-12.043 2.8008z"/>
  <path d="m340.59 141.34-3.6953 1.625-2.2969-4.3125 3.4727-2.1836c1.793-6.6094 5.6016-9.2969 10.078-7.6172 1.9102 0.66406 3.4609 2.0859 4.2969 3.9258 0.83594 1.8398 0.88281 3.9453 0.125 5.8203-1.6797 4.3086-6.3281 5.4883-11.98 2.7422z"/>
  <path d="m351.4 166.54-3.6953 1.5117-2.1836-4.3672 3.4141-2.0703h0.003906c0.28906-1.0664 0.64062-2.1133 1.0625-3.1367 1.2852-3.8203 5.4219-5.875 9.2383-4.5938 3.8203 1.2852 5.8789 5.4219 4.5938 9.2422-1.1328 3.7266-5.0508 5.8477-8.793 4.7578-1.2383-0.36719-2.457-0.81641-3.6406-1.3438z"/>
  <use x="70" y="644" xlink:href="#s"/>
  <use x="90.550781" y="644" xlink:href="#b"/>
  <use x="104.359375" y="644" xlink:href="#a"/>
  <use x="123.347656" y="644" xlink:href="#f"/>
  <use x="142.242188" y="644" xlink:href="#d"/>
  <use x="155.628906" y="644" xlink:href="#a"/>
  <use x="174.617188" y="644" xlink:href="#j"/>
  <use x="204.410156" y="644" xlink:href="#e"/>
  <use x="224.453125" y="644" xlink:href="#i"/>
  <use x="252.453125" y="644" xlink:href="#h"/>
  <use x="272.617188" y="644" xlink:href="#c"/>
  <use x="291.851562" y="644" xlink:href="#b"/>
  <use x="305.664062" y="644" xlink:href="#a"/>
  <use x="324.652344" y="644" xlink:href="#g"/>
  <use x="353.828125" y="644" xlink:href="#e"/>
  <use x="373.871094" y="644" xlink:href="#f"/>
  <use x="70" y="672" xlink:href="#r"/>
  <use x="82.183594" y="672" xlink:href="#b"/>
  <use x="95.992188" y="672" xlink:href="#c"/>
  <use x="115.226562" y="672" xlink:href="#g"/>
  <use x="154.152344" y="672" xlink:href="#d"/>
  <use x="167.535156" y="672" xlink:href="#q"/>
  <use x="187.46875" y="672" xlink:href="#a"/>
  <use x="216.207031" y="672" xlink:href="#p"/>
  <use x="239.640625" y="672" xlink:href="#c"/>
  <use x="258.878906" y="672" xlink:href="#o"/>
  <use x="278.8125" y="672" xlink:href="#n"/>
  <use x="308.492188" y="672" xlink:href="#m"/>
  <use x="329.015625" y="672" xlink:href="#b"/>
  <use x="342.820312" y="672" xlink:href="#c"/>
  <use x="362.058594" y="672" xlink:href="#l"/>
  <use x="371.65625" y="672" xlink:href="#a"/>
  <use x="390.648438" y="672" xlink:href="#k"/>
  <use x="407.242188" y="672" xlink:href="#d"/>
 </g>
</svg>
